<?xml version="1.0" encoding="utf-8"?>
<!-- Generator: Adobe Illustrator 23.1.0, SVG Export Plug-In . SVG Version: 6.00 Build 0)  -->
<svg version="1.1" id="Warstwa_1" xmlns="http://www.w3.org/2000/svg" xmlns:xlink="http://www.w3.org/1999/xlink" x="0px" y="0px"
	 viewBox="0 0 236.8 100.2" style="enable-background:new 0 0 236.8 100.2;" xml:space="preserve">
<style type="text/css">
	.st0{fill:#AFEEEE;}
	.st1{fill:#FFFF00;}
	.st2{fill-rule:evenodd;clip-rule:evenodd;fill:#FFFFFF;}
</style>
<g>
	<g>
		<path class="st0" d="M61.5,0c-3.6,0.1-7,1.9-8.8,4.8c-0.6-0.4-1.2-0.8-2-1.1c-2.9-1.3-6.3-1-8.8,0.6c-1.5-1.4-3.4-2.4-5.6-2.9
			C31,0.3,25.2,3.5,24,8.8c-0.2,1-0.2,2-0.1,3c-5-0.4-10,2.7-11.1,7.6c-0.6,2.4,0.1,5,1.5,6.9c-1.1,0.8-2,1.8-2.6,3
			c-0.7,1.5-0.8,3.2-0.4,4.7C6.6,34,2.1,37,1.1,41.5c-0.8,3.6,0.9,7.4,4.1,9.3c-2.5,1.3-4.4,3.5-5,6.3c-1,4.6,2,9.3,6.9,10.3
			c0.8,0.1,1.5,0.2,2.3,0.1c0.2,0.7,0.4,1.3,0.8,2C10,70,9.8,70.5,9.7,71c-1,4.6,2,9.3,6.9,10.3c1.3,0.3,2.6,0.2,3.8-0.1
			c-0.4,1.6,0.1,3.4,1.5,4.6c1.2,1,2.8,1.3,4.1,0.9c-0.2,1.1-0.1,2.4,0.7,3.5c1.3,1.9,3.8,2.7,5.7,1.5l-1.5,3.1
			c1-0.1,1.9-0.4,2.7-0.9c2.7-1.6,3.6-5.3,1.7-8.1c-0.1-0.2-0.3-0.4-0.5-0.6c0.7-0.5,1.1-1.3,1.3-2.3c0.2-1.7-0.9-3.5-2.5-3.8
			c0-0.1,0-0.1,0-0.2c0.2-1.8-0.9-3.5-2.6-3.8c0,0,0,0,0,0c0-0.2,0-0.3,0-0.5c0.1-0.1,0.1-0.2,0.2-0.3c0.9-0.1,1.6-0.8,1.8-1.8
			c0.1-1-0.5-2.1-1.5-2.2c-0.1,0-0.1,0-0.2,0c0.1-1.2-0.3-2.3-1.1-3.1c0.5-0.5,0.9-1.2,1-2c0.1-0.5,0-1.1-0.1-1.6
			c1.7-1.9,2-4.8,0.5-7.1c-0.4-0.6-0.8-1-1.4-1.4c1.3-1.4,1.9-3.6,1.2-5.6c0,0,0,0,0-0.1c1.1,0.1,2.1-0.1,3-0.8l-1,3.3
			c1-0.2,1.9-0.6,2.6-1.2c1.1-0.9,1.8-2.1,2-3.4c0.8,0.9,2.1,1.2,3.2,0.8l-1.5,2.1c0.7,0.1,1.4,0,2.1-0.2c2.2-0.8,3.3-3.4,2.3-5.7
			c-0.2-0.4-0.4-0.8-0.7-1.2c1.5,0,3.1-0.9,3.8-2.4c0.1-0.2,0.2-0.5,0.3-0.8c0.4,0.5,0.9,0.8,1.5,0.9l-1.9,0.9
			c0.5,0.4,1,0.6,1.6,0.7c0.5,0.1,0.9,0,1.4-0.1c-0.1,0.8,0.2,1.6,0.9,1.9l-1.5,0.2c0.3,0.3,0.6,0.6,1,0.8c1,0.5,2.3,0.2,3-0.6
			c0.8,0.1,1.6-0.3,2.1-1c0.1-0.2,0.2-0.5,0.3-0.8c0.1,0,0.3-0.1,0.4-0.1c0.3,0.3,0.7,0.6,1.1,0.6L56.2,44c0.3,0.2,0.7,0.3,1,0.3
			c1.1,0,2-0.8,2.2-2c0.3,0,0.7-0.1,1-0.2c0.4,0.6,1.2,0.8,1.8,0.6l-0.7,1.1c0.4,0,0.7,0,1.1-0.2c0.7-0.3,1.1-0.9,1.2-1.6
			c0.4-0.1,0.7-0.2,1.1-0.4c0.1,0.1,0.3,0.2,0.5,0.3l-1.3,0.3c0.3,0.3,0.6,0.5,0.9,0.6c0.5,0.2,0.9,0.1,1.4,0c0,0.9,0.5,1.7,1.4,2
			L66,45.1c0.4,0.4,0.8,0.6,1.3,0.8c0.8,0.3,1.6,0.2,2.4-0.2c0,0,0,0.1,0,0.1c-0.1,0.4-0.1,0.8-0.1,1.1c-0.4,0.2-0.7,0.5-0.9,0.9
			c-0.1,0.3-0.2,0.6-0.2,0.9c-0.3,0.1-0.6,0.4-0.7,0.6c-0.4,0.7-0.3,1.7,0.4,2.2l-1.3,0c0.2,0.3,0.4,0.6,0.7,0.8
			c1,0.7,2.4,0.4,3-0.7c0-0.1,0.1-0.1,0.1-0.2c0.6-0.2,1.1-0.6,1.4-1.2c0.4,0.2,0.9,0.2,1.3,0c0.1,0.6,0.5,1.1,1.1,1.4
			c-0.7,0.6-1.1,1.6-1,2.6v0c0.1,1,0.6,1.9,1.4,2.5l-1.5,0c0.4,0.6,0.9,1.2,1.4,1.5c0.5,0.3,1,0.5,1.5,0.6c0,0,0,0,0,0.1
			c-0.6,0-1.3-0.1-1.8-0.4l0,0.1c0.6,0.3,1.3,0.4,1.9,0.4c0,0.3,0.1,0.6,0.2,0.9c0.3,1,1,1.7,1.8,2.2c-0.4,2.3,0.6,4.7,2.6,5.6
			l-4,0.7c0.7,0.9,1.6,1.6,2.7,2.1c1.5,0.7,3.1,0.7,4.6,0.3c-0.1,0.2-0.2,0.4-0.3,0.6c-1.3,3.4,0.1,7.5,3.3,8.9l-5.5,1
			c1,1.2,2.3,2.2,3.7,2.8c4.6,2,10.3-0.2,12.3-5.3c0.7-1.8,0.8-3.8,0.5-5.6c0.2-0.3,0.3-0.7,0.4-1c2.1,0,4.2-0.6,6-2
			c1.3-1,2.2-2.3,2.9-3.7c2.9-0.3,5.7-1.7,7.3-4.1c2.6-3.9,1.5-9.4-2.8-12.1c-0.2-0.1-0.5-0.3-0.7-0.4c3-3.4,3.7-8.6,1.3-12.9
			c-1.8-3.1-5-5.2-8.3-5.6c-0.2-1.6-0.7-3.2-1.7-4.6c3-4.2,2.7-10.4-1.4-14.3c-3-2.9-7.5-3.9-11.2-2.6c-0.7-4.3-4-8.2-8.8-9.1
			c-4-0.8-8.2,0.7-10.6,3.6c-1.6-2-3.9-3.5-6.7-4.1C63.2,0,62.3,0,61.5,0L61.5,0z M48.6,35.7C48.6,35.7,48.6,35.7,48.6,35.7
			C48.6,35.7,48.6,35.7,48.6,35.7C48.5,35.7,48.5,35.7,48.6,35.7L48.6,35.7z M65.1,36.2C65.1,36.2,65.1,36.2,65.1,36.2L65.1,36.2
			C65.1,36.2,65.1,36.2,65.1,36.2L65.1,36.2z M69.9,36.4c0.1,0,0.1,0,0.2,0c0,0-0.1,0.1-0.1,0.1C70,36.5,70,36.4,69.9,36.4
			L69.9,36.4z M74.7,51.8c0.3,0.1,0.6,0.2,1,0.2c-0.2,0.2-0.3,0.4-0.4,0.6c-0.8,1.4-0.5,3.4,0.9,4.2l-0.9,0
			c-0.8-0.5-1.4-1.4-1.5-2.5C73.6,53.3,74,52.4,74.7,51.8L74.7,51.8z M74.7,51.8"/>
		<path class="st1" d="M61.8,79.9l-0.2,0c-1.2,0.1-2.2,0.9-2.8,1.9c-0.9,0.7-2.1,0.2-3,0c-1.2-0.5-2.3,0.4-2.8,1.4
			c-0.7,1.1-2.1,1.6-2.6,2.8c-0.6,0.9-1.5,1.8-1.3,2.9c-0.3,0.8-0.3,2.4,1,2.2c0.3-0.3,0.5-1.1,0.8-0.3c0.6,0.7,1.6-0.3,0.6-0.7
			c0.4-0.4-0.6-1.2-0.2-1.1c0.6,1,2,1.7,3.1,1.1c0.1-1.1,1.7-1.6,2.1-2.7c-0.4-0.2-0.7-1.3-0.1-0.5c0.5,0.2,0.1-1.5,0.5-0.5
			c0,1,1.9,1.6,2.1,0.5c0.1,0.9,1.2,0.5,1.2-0.3c1,0.7,1.6-1.7,2.5-0.6c0.3,0.7,1.1,1,1.6,1c0.3,0.6,0.8,0,1.3,0
			c0.2-0.3,1.6-1.1,0.9-0.4c-0.6,1.1,1.6,0.8,1.6-0.1c0.1-0.2,0-1.8,0.2-0.9c-0.1,0.5,0.1,1.3,0.6,0.8c0.6,0.4,0.9-0.9,0.9,0
			c0.2,0.1,0.7-0.9,0.6-0.2c1.2,0.3,1.6-1.3,1.1-2.1c-0.6-0.7-1.7-0.6-2.4-1.2c-1-0.5-1.9-1.1-3-1.5C64.7,80.9,63.4,80,61.8,79.9
			L61.8,79.9z M69.5,88.5c-1.1,0.6-2.4,1-3.1,2c-0.1,0.7,0.9,1.1,0.8,1.8c-0.5-0.6-1-1.9-2-1.4c-0.9,0.5-2.2,0.7-3.2,0.3
			c-1.4-0.1-1,1.4-0.7,2.2c0.1,0.5,0.5,1.7,0.1,1.9c-0.8-1,0.1-2.5-0.9-3.4c-1.1-0.5-2.2,0.3-3.4,0.2c-0.7,0.6-2.2,1-2.4-0.2
			c-0.9-0.4-2,0.2-2.6,0.9c-0.9,0.8-0.2,1.9-0.3,2.8c-0.2,0.6-0.5-0.7-0.8,0.1c-0.6,0.9,0.3,1.7,0.9,2.3c1.3,1.2,3.1,1.7,4.9,2.1
			c1.1,0.1,2.3,0.1,3.4-0.4c0.5-0.7,1.4-0.1,1.9-0.6c0.1-0.4,0.1-0.7,0.4-0.2c1,0.6,2.1-0.3,3.2-0.2c1.3-0.3,2.5-1,3.3-2.1
			c0.7-0.7,1.4-1.5,1.9-2.4c0.6-0.8,1.4-1.4,1.8-2.3c0.3-0.6,1.3-1.9,0.1-2c-0.4-0.1-0.9,0.6-1,0.7c-0.2-0.4-0.7-1.5-0.9-1.1
			C71.7,92.4,70.4,88.9,69.5,88.5L69.5,88.5z M69.5,88.5"/>
		<path class="st1" d="M23.1,56.8c-1.1,0.3-2.2,0.6-3.3,1c-0.9,0.3-1.7,0.7-2.4,1.2c-0.7,0.6-1.3,1.4-1.6,2.4
			c-0.2,1.1,0,2.3,0.4,3.4c0.4,1.1,1.1,2.1,1.7,3c2.5,3.8,5.1,7.6,8.6,10c4,2.7,8.8,3.1,13,1.8c4.4-1.4,8.3-4.8,10.2-9.6
			c1-2.4,1.5-5.2,1.4-8c0.7-0.5,1.3-1,2.1-1.2c0.7-0.1,1.4,0,2.1,0.1c1.3,2.5,3,4.7,5,6.4c4,3.4,9.1,4.6,13.6,3.8
			c4.3-0.7,8.4-3.3,10.7-7.5c2-3.7,2.4-8.3,2.8-12.8c0.1-1.1,0.2-2.3,0.1-3.4c-0.1-1.2-0.5-2.3-1.2-3.2c-0.7-0.8-1.6-1.3-2.5-1.4
			c-0.9-0.2-1.8-0.1-2.7,0c-1.1,0.2-2.3,0.4-3.4,0.6c-3.4,0.8-6.6,2.1-9.7,3.7c-4.9,2.5-9.4,5.8-13.4,9.8c-0.8-0.2-1.6-0.3-2.3-0.1
			c-0.9,0.2-1.7,0.7-2.4,1.3c-5.5-1.7-11-2.6-16.5-2.6C29.9,55.6,26.4,56,23.1,56.8L23.1,56.8z M23.1,56.8"/>
		<path class="st0" d="M26.5,59c1.8-0.5,3.6-0.7,5.5-0.8c5.7-0.4,11.7,0.5,17.3,2.6c0.3,3-0.1,6.1-1.3,8.6c-1.1,2.4-2.7,4.3-4.7,5.7
			c-2,1.4-4.2,2.2-6.6,2.5c-3.2,0.4-6.6-0.2-9.6-2.1C24.6,73.7,22.5,71,21,68c-0.3-0.7-0.6-1.5-0.8-2.3c-0.2-0.8-0.2-1.7,0-2.4
			c0.2-0.8,0.7-1.5,1.3-2c0.6-0.5,1.2-0.9,1.9-1.2C24.4,59.6,25.5,59.3,26.5,59L26.5,59z M26.5,59"/>
		<path class="st0" d="M75.2,47.3c1.3-0.3,2.5-0.5,3.8-0.6c0.7,0,1.5,0,2.2,0.1c0.7,0.2,1.5,0.6,2.1,1.2c0.5,0.6,0.9,1.3,1.2,2.1
			c0.2,0.8,0.3,1.6,0.4,2.4c0.2,3.4-0.4,6.8-1.9,9.5c-1.7,3.1-4.5,5.2-7.5,6.2c-2.2,0.8-4.6,1.1-7,0.8c-2.4-0.3-4.8-1.3-6.9-3
			c-2.2-1.8-4.1-4.2-5.3-7.1c4.1-4.4,8.9-7.9,14.1-10.1C72,48.2,73.6,47.6,75.2,47.3L75.2,47.3z M75.2,47.3"/>
	</g>
	<g>
		<path class="st2" d="M133.3,45.6v19.8v8.1h8.2h11.4v-8.1h-11.4V45.6H133.3L133.3,45.6z M169.9,45.6c-7.6,0-13.8,6.2-13.8,13.8v0.3
			c0,7.6,6.1,13.8,13.8,13.8c7.7,0,13.9-6.2,13.9-13.8v-0.3C183.7,51.8,177.5,45.6,169.9,45.6L169.9,45.6z M185.3,45.6l8.7,28h0.1
			h8.1l8.7-28h-8.1l-4.6,14.9l-4.7-14.9H185.3L185.3,45.6z M215.7,45.6v8.1v1.8v8.1v1.8v8.1h8.2h11.4v-8.1h-11.4v-1.8h4.2v-8.1h-4.2
			v-1.8h11.4v-8.1h-11.4H215.7L215.7,45.6z M169.9,53.7c3.2,0,5.8,2.6,5.8,5.8v0.2c0,3.2-2.6,5.8-5.8,5.8c-3.2,0-5.8-2.6-5.8-5.8
			v-0.2C164.1,56.3,166.6,53.7,169.9,53.7L169.9,53.7z M169.9,53.7"/>
		<path class="st1" d="M210.7,4.4l-5.3,1.2l1.1,4.7L210.7,4.4L210.7,4.4z M226.6,10.8c-4.6,0.2-8.7,3.6-9.5,8.4
			c-0.9,5.4,2.8,10.6,8.2,11.5c5.4,0.9,10.6-2.8,11.5-8.2l-9.8-1.6l3.7-9.3c-0.7-0.3-1.4-0.5-2.1-0.6
			C227.9,10.8,227.2,10.8,226.6,10.8L226.6,10.8z M206.8,12.7l4.7,20.2l4.8-3.4L206.8,12.7L206.8,12.7z M162.5,16.3l-4,0.7
			l-2.3,14.5l-8-12.4l-4,0.9l2.6,37.1l5-3.8l-3-25.9l8.7,9.7l4.1-13.5l5.6,18.2l4.4-4.4L162.5,16.3L162.5,16.3z M194.8,16.3
			c-0.9,0.1-1.8,0.3-2.5,0.8c-0.8,0.4-1.4,1-1.8,1.8c-0.4,0.8-0.6,1.7-0.4,2.6c0.1,0.7,0.5,1.4,1.1,2c0.5,0.5,1.2,1,1.9,1.3
			c1.4,0.6,2.9,0.8,4.4,0.9c1.6,0.1,3.3,0.3,4.6,1.2c0.7,0.4,1.2,1,1.5,1.8c0.3,0.7,0.3,1.6-0.1,2.3c-0.4,0.7-1,1.2-1.8,1.4
			c-0.7,0.2-1.5,0.2-2.2,0.1c-1.9-0.4-3.6-1.7-4.5-3.5l-4,0.5c0.5,1.9,1.7,3.7,3.3,4.9c1.6,1.2,3.6,1.9,5.6,1.9
			c1.2,0,2.5-0.2,3.6-0.8c1.1-0.5,2.1-1.4,2.7-2.5c0.6-1.1,0.9-2.4,0.7-3.6c-0.2-1.2-0.9-2.4-2-3.1c-1-0.6-2.3-0.8-3.5-0.8
			c-1.2,0-2.4,0.1-3.6,0c-0.6-0.1-1.2-0.2-1.7-0.4c-0.6-0.2-1.1-0.5-1.6-0.9c-0.4-0.4-0.8-1-0.9-1.6c-0.1-0.6-0.1-1.2,0.3-1.7
			c0.3-0.5,0.8-0.9,1.4-1.1c0.6-0.2,1.2-0.2,1.8-0.1c0.8,0.1,1.5,0.5,2.1,0.9c0.6,0.5,1.1,1.1,1.4,1.8l4-0.5
			c-1.4-2.8-4.1-4.9-7.2-5.5C196.6,16.3,195.7,16.2,194.8,16.3L194.8,16.3z M184.6,18.3l-3.3,0.8c0.3,0.9,0.5,1.9,0.7,2.8
			c1.7,7.5,1.9,14-0.5,14.6c-2.4,0.6-5.4-5.4-7-12.8c-0.2-1-0.4-2-0.5-2.9l-3.3,0.8c0.1,1.3,0.3,2.7,0.6,4.2
			c1.8,8.2,6.3,14.3,11,13.3c4.7-1,5.4-8.4,3.6-16.6C185.5,20.9,185.1,19.5,184.6,18.3L184.6,18.3z M184.6,18.3"/>
		<g>
			<path class="st1" d="M211.4,72.6c0,0.1,0,0.2,0,0.5c-0.1,0.3-0.1,0.5-0.2,0.6l0,0.5c0,0.8,0.1,1.5,0.2,2.1
				c0.1,0.7,0.2,1.5,0.3,2.4c0.2,1.9,0.4,3.6,0.8,5c0.3,1.4,0.7,2.5,1.1,3.1c0.3,0.4,0.4,0.7,0.5,0.8s0.1,0.3,0,0.5
				c-0.1,0.3-0.2,0.5-0.5,0.7c-0.2,0.2-0.5,0.2-0.8,0.1c-0.9-0.2-1.6-1.8-2.2-4.8c-0.2-1.2-0.4-1.8-0.5-1.8c-0.3-0.1-1-0.1-2.1-0.2
				c-1.1-0.1-2.1-0.1-3.1,0c-0.5,0-0.9,0-1,0c-0.2,0-0.3-0.2-0.5-0.4c0,0-0.1-0.1-0.1-0.1c-0.1,0-0.6,0.3-1.3,1.1
				c-1.1,1.2-1.8,2-2.1,2.2c-0.3,0.2-0.5,0.3-0.8,0.3c-0.2,0-0.4-0.2-0.6-0.5c-0.2-0.3-0.3-0.5-0.2-0.7c0-0.2,0.2-0.5,0.6-0.8
				c0.3-0.3,1-0.9,2-1.9c1.8-1.6,3.3-3.2,4.6-4.7c2.1-2.4,3.4-3.8,3.9-4.2c0.5-0.4,0.9-0.6,1.1-0.5
				C210.9,72.1,211.2,72.3,211.4,72.6z M210.1,80.7c-0.1-0.6-0.2-1.6-0.3-3.2c-0.1-1.6-0.2-2.6-0.3-3c-0.5,0.7-1.4,1.7-2.5,2.9
				l-2.6,3c0.2-0.1,0.6-0.1,1.2,0c0.5,0.1,0.9,0.1,1.2,0.1C208.7,80.6,209.8,80.7,210.1,80.7z"/>
			<path class="st1" d="M216.8,88.1c-0.4,0.8-0.9,2-1.5,3.4l-0.5,1.3c-0.1,0.2-0.2,0.4-0.4,0.5c-0.2,0.2-0.3,0.2-0.5,0.2
				c-0.1,0-0.3-0.1-0.5-0.3c-0.2-0.2-0.2-0.3-0.2-0.4c0.1-0.3,0.2-0.6,0.4-1c1.7-3.3,2.8-6.3,3.5-9l0.1-0.6c0.1-0.5,0.3-0.9,0.5-1.1
				s0.5-0.3,0.7-0.2c0.1,0,0.2,0.1,0.3,0.3c0.1,0.2,0.1,0.5,0,0.8c-0.1,0.5-0.3,1-0.5,1.6c-0.3,0.8-0.5,1.3-0.5,1.4
				c1-1.1,2-1.9,2.9-2.4c1-0.5,1.8-0.7,2.5-0.5c0.5,0.1,0.8,0.4,1.1,0.8c0.2,0.4,0.3,0.9,0.2,1.5c-0.4,1.5-1.3,2.8-2.8,3.8
				c-1.5,1-2.8,1.3-3.9,1.1c-0.3-0.1-0.5-0.2-0.6-0.4C217,88.8,216.9,88.5,216.8,88.1z M222.6,83.4c-0.7-0.2-1.6,0.3-2.9,1.3
				c-1.3,1-2,1.9-2.2,2.6c0,0.2,0,0.4,0.2,0.6c0.2,0.2,0.4,0.3,0.7,0.4c0.7,0.2,1.6-0.2,2.7-1c1.1-0.8,1.8-1.7,2-2.7
				c0.1-0.3,0.1-0.6,0-0.9C222.9,83.6,222.8,83.5,222.6,83.4z"/>
			<path class="st1" d="M226.2,90.3c-0.4,0.8-0.9,2-1.5,3.4l-0.5,1.3c-0.1,0.2-0.2,0.4-0.4,0.5s-0.3,0.2-0.5,0.2
				c-0.1,0-0.3-0.1-0.5-0.3c-0.2-0.2-0.2-0.3-0.2-0.4c0.1-0.3,0.2-0.6,0.4-1c1.7-3.3,2.8-6.3,3.5-9l0.1-0.6c0.1-0.5,0.3-0.9,0.5-1.1
				c0.2-0.2,0.5-0.3,0.7-0.2c0.1,0,0.2,0.1,0.3,0.3c0.1,0.2,0.1,0.5,0,0.8c-0.1,0.5-0.3,1-0.5,1.6c-0.3,0.8-0.5,1.3-0.5,1.4
				c1-1.1,2-1.9,2.9-2.4c1-0.5,1.8-0.7,2.5-0.5c0.5,0.1,0.8,0.4,1.1,0.8c0.2,0.4,0.3,0.9,0.2,1.5c-0.4,1.5-1.3,2.8-2.8,3.8
				c-1.5,1-2.8,1.3-3.9,1.1c-0.3-0.1-0.5-0.2-0.6-0.4C226.4,91,226.3,90.7,226.2,90.3z M232,85.6c-0.7-0.2-1.6,0.3-2.9,1.3
				c-1.3,1-2,1.9-2.2,2.6c0,0.2,0,0.4,0.2,0.6c0.2,0.2,0.4,0.3,0.7,0.4c0.7,0.2,1.6-0.2,2.7-1c1.1-0.8,1.8-1.7,2-2.7
				c0.1-0.3,0.1-0.6,0-0.9C232.4,85.8,232.2,85.7,232,85.6z"/>
		</g>
	</g>
</g>
</svg>
